<svg xmlns="http://www.w3.org/2000/svg" xmlns:xlink="http://www.w3.org/1999/xlink" width="639.949" height="609.861" viewBox="0 0 639.949 609.861">
  <defs>
    <clipPath id="clip-path">
      <rect id="Rectangle_392" data-name="Rectangle 392" width="639.949" height="609.861" fill="#119db5"/>
    </clipPath>
  </defs>
  <g id="Group_911" data-name="Group 911" clip-path="url(#clip-path)">
    <path id="Path_3106" data-name="Path 3106" d="M607.494,397.1l9.469,2.006a1.366,1.366,0,0,0,.281.03h2.948a1.355,1.355,0,0,0,1.084-.543l5.628-7.53,5.536-2.786a1.354,1.354,0,0,0,.457-.374l6.765-8.636a1.353,1.353,0,0,0-.025-1.7l-9.179-11.023,3.54-8.93a1.354,1.354,0,0,0-1.256-1.851,20.478,20.478,0,0,1-5.383-.86c-1.725-.561-5.5-4.395-7.7-6.928v-3.426a1.358,1.358,0,0,0-.148-.617l-1.965-3.837a1.335,1.335,0,0,0-.175-.261l-5.087-5.965,2.116-2.862a6.339,6.339,0,0,1,3.905-1.49h2.855a1.353,1.353,0,0,0,1.337-1.561l-1.939-12.5-.9-11.608a1.31,1.31,0,0,0-.037-.229l-1.964-7.709a1.357,1.357,0,0,0-.355-.623l-4.858-4.857a1.343,1.343,0,0,0-.146-.126l-7.674-5.745a1.352,1.352,0,0,0-.811-.27c-.075,0-7.433-.051-7.433-4.43v-5.8a1.354,1.354,0,0,0-1.669-1.316,36.794,36.794,0,0,1-7.432.891h-6.152l-3.04-3.01v-6.675l6.169.757,6.688.939,5.22.894,2.535,4.3a1.352,1.352,0,0,0,.89.637l9.693,2.02a1.35,1.35,0,0,0,1.153-.294l5.605-4.764a6.413,6.413,0,0,0,4.529-6.017V252l2.768-9.032,2.41-1.661a1.352,1.352,0,0,0,.518-1.535c-.848-2.6-3.357-6.71-7.356-5.679-3.141.729-6.992,1.542-8.225,1.8l-8.964-3.6-2.663-3.552a1.354,1.354,0,0,0-.917-.531c-1.78-.221-3.992-1-4.29-1.712-.1-.246.216-.7.375-.906,1.967-2.669,6.049-4.381,7.941-5.062.731,1.14,1.91,2.472,3.356,2.258,1.89-.277,2.317-2.736,2.479-3.671a66.25,66.25,0,0,0,.983-9.917,1.353,1.353,0,0,0-1-1.307L598,205.2l-4.583-10.974a1.355,1.355,0,0,0-1.627-.778l-5.184,1.51-.772-7.648,5.974-9.429,3.953.842a1.356,1.356,0,0,0,1.082-.232c3.36-2.463,11.175-8.536,11.175-11.732,0-2.791-1.445-6.717-1.921-7.934l.875-5.209a5.088,5.088,0,0,0,0-3.8c-.69-1.667-2.264-2.922-4.675-3.729q-6.1-2.059-7.943-2.667l-.846-5.916a1.354,1.354,0,0,0-.738-1.022l-2.907-1.441a3.516,3.516,0,0,0-.489-2.287c-.911-1.47-2.9-2.216-5.9-2.216h-5.728c-.586-1.708-2.119-4.9-5.562-5.723l-3.893-.983a1.342,1.342,0,0,0-.331-.041H560.3a1.352,1.352,0,0,0-.867.314l-5.8,4.838-.055.049c-.336.109-1.009.306-2.329.64l-3.857.945a1.353,1.353,0,0,0-1.032,1.314v1.556H545.9l-.731-3.726c0-.018-.007-.037-.012-.055l-.926-3.855a1.353,1.353,0,0,0-.81-.939l-4.874-1.965a1.418,1.418,0,0,0-.192-.061l-3.893-.928a1.347,1.347,0,0,0-1.114.225,7.1,7.1,0,0,1-.946-1.476l-1.792-3.749-.912-3.683a1.354,1.354,0,0,0-.869-.953l-2.458-.855-2.593-5.284a1.352,1.352,0,0,0-.389-.476l-3.7-2.851-6.322-7.113c.167-1.593.266-5.576-2.4-8.289l-2.966-2.855a1.372,1.372,0,0,0-.178-.144l-2.891-1.965a1.353,1.353,0,0,0-1.508-.009c-.19.035-1.136.117-3.446-1.044-.037-.018-.074-.035-.112-.05l-4.147-1.632-.863-6.914a1.353,1.353,0,0,0-.535-.919l-3.676-2.734-5.681-7.7a1.354,1.354,0,0,0-1.089-.55h-8.919l-2.5-3.71,1.188-.4a1.354,1.354,0,0,0,.922-1.283V49.765a1.356,1.356,0,0,0-.219-.739L472.447,46.1a1.309,1.309,0,0,0-.107-.142l-5.745-6.69a1.352,1.352,0,0,0-1.027-.472H460.1V37.161a1.258,1.258,0,0,0-.009-.149l-.962-8.674a1.355,1.355,0,0,0-.528-.931l-7.655-5.791-10.7-8.712a1.355,1.355,0,0,0-1.179-.265l-3.835.946c-.038.01-.076.021-.114.034l-5.8,1.984a1.353,1.353,0,0,0-.855,1.681c-.116.154-.675.71-2.873,1.128l-4.812.992-6.353.876c-.933-.3-3.465-.895-8.951-.895H390.433l-3.781-1.543-6.51-2.74,1.632-5.665a1.354,1.354,0,0,0-.987-1.692l-3.893-.926a1.394,1.394,0,0,0-.314-.037H343.753a1.351,1.351,0,0,0-.953.394l-4.479,4.444h-3.792l-4.466-3.611a1.356,1.356,0,0,0-.974-.3l-10.612.964a1.352,1.352,0,0,0-1.158.909l-.209.612-2.316-2.907a1.44,1.44,0,0,0-.168-.176L306.849.332a1.354,1.354,0,0,0-1.421-.226l-4.743,2.023-4.829,1.89c-.035.014-.069.029-.1.045l-3.77,1.85-2.688.88a1.562,1.562,0,0,0-.248-.411c-.933-1.137-2.1-.712-6.955,2.518-1.155.776-2.036,1.356-2.708,1.79a1.268,1.268,0,0,0-.127-.031,1.348,1.348,0,0,0-1.068.244l-.035.027-.014.011,0,0-.01.008-.005,0-4.068,3.248L272.246,13l-2.79-4.634a1.355,1.355,0,0,0-.839-.617l-3.8-.926a1.353,1.353,0,0,0-1.668,1.189c-.085.188-.689.663-2.519.663H256.74a1.355,1.355,0,0,0-.44.073l-2.911,1a1.337,1.337,0,0,0-.266.125l-4.61,2.818-3.687.9a1.344,1.344,0,0,0-.3.11l-3.846,1.965-1.965.928a1.352,1.352,0,0,0-.294.188l-5.764,4.855a1.353,1.353,0,0,0-.481,1.036v6.7l-9.454,2.641H212.263a1.352,1.352,0,0,0-.739.22l-5.829,3.8a1.353,1.353,0,0,0-.577,1.45l.928,3.861,2,10.605a1.357,1.357,0,0,0,.247.562l5.5,7.331v6.549l-4.069-3.74V57.438a1.353,1.353,0,0,0-1.025-1.313l-2.934-.734a4.949,4.949,0,0,0-5.078-4.142,14.945,14.945,0,0,1-3.6-.392,21.6,21.6,0,0,0-5.122-.517c-4.567,0-11.293-1.86-11.361-1.879a1.354,1.354,0,0,0-1.338.365L176.7,51.5l-7.531,3.771a1.354,1.354,0,0,0-.748,1.21v4.579L164.8,68.437,162.7,72.33a1.351,1.351,0,0,0-.094.219l-1.462,4.457a14.9,14.9,0,0,0-4.009-.551h-7.713a4.145,4.145,0,0,0-.775-3.315c-1.909-2.833-4.871-7.651-4.9-7.7A1.353,1.353,0,0,0,142.6,64.8H124.229a1.354,1.354,0,0,0-1.218.764l-1.587,3.279-8.867.82a1.353,1.353,0,0,0-1.177.979l-1.865,6.587L105.656,82.8a1.354,1.354,0,0,0-.135,1.293l1.914,4.568v2.524l-.932,6.654a1.353,1.353,0,0,0,.839,1.445l4.519,1.8,4.628,5.555a1.353,1.353,0,0,0,2,.083l4.239-4.3,8.6,2.142-.267.28a1.367,1.367,0,0,0-.233.332l-3.865,7.786a1.359,1.359,0,0,0,.586,1.8,11.2,11.2,0,0,1-1.57.355,4.382,4.382,0,0,0-3.4,2.326c-1.467,2.855.176,7.369,1.024,9.324l-2.256,2.262a1.356,1.356,0,0,0-.147,1.734c-.239.37-.723.949-1.129,1.436-2.912,3.493-8.972,10.76-2.243,23.589a31.073,31.073,0,0,1,2.15,4.748c-2.993-2.007-10.083-9.549-11.967-13.8-1.584-3.769-5.9-2.43-10.478-1.011a43.226,43.226,0,0,1-10.067,2.224,17.853,17.853,0,0,1-13.555-4.518,8.435,8.435,0,0,0-3.485-1.915c.173-1.16.106-2.346-.982-2.757-1.33-.5-2.382.76-3.693,3.157-4.812,2.257-7.06,10.534-6.963,14.727.048,2.056.644,3.279,1.77,3.636a2.005,2.005,0,0,0,1.384-.062,4.924,4.924,0,0,0,1.615,2.162,6.2,6.2,0,0,0,4.917.817c.449-.081.85-.145,1.207-.2-3.5,1.734-9.889,3.885-12.877,3.151-.778-.191-.821-.478-.84-.606-.162-1.239-.688-1.9-1.562-1.972-1.467-.117-2.07,1.235-3.682,6.645a64.726,64.726,0,0,0-2.06,11.313c-.18,1.487-.388,3.2-.612,4.422-.539-1.186-1.415-2.923-2.922-2.432-1.269.414-1.7,1.7-.913,8.2.456,3.761,1.278,8.613,2.2,12.982,1.2,5.65.52,7.264.171,7.7a.689.689,0,0,1-.625.251,5.72,5.72,0,0,0-4.741,2.242c-3.643,4.781-.794,15.652-.457,16.876a1.353,1.353,0,0,0,1.174.987l10.069.982c1.645,1.976,7.628,8.663,12.635,7.763,5.327-1.106,12.689-.421,15.9,5.143,1.295,2.285,4.2,4.533,7.01,6.708,1.718,1.33,4.259,3.3,4.7,4.213a9.96,9.96,0,0,1-3.84.608,7.662,7.662,0,0,0-3.434,1.291,9.124,9.124,0,0,1-5.157,1.6c-1.995-.071-4.069-3.457-5.735-6.178-1.516-2.475-2.825-4.612-4.422-5.286-5.855-2.649-8.035-2.032-9.388-.213-4.67-1.313-5.687-1.913-5.857-2.032a1.353,1.353,0,0,0-2.1.141l-6.189,8.82-5.24.854a1.354,1.354,0,0,0-1.022.792c-.7,1.592-6.7,15.722-2.2,21.688,1.57,2.084,4.112,2.9,7.556,2.439,3.641-.493,4.748.082,4.867.345.453,1-2.328,4.742-5.761,7.777l-12.171,4.7-10.428.872a1.353,1.353,0,0,0-1.241,1.349v8.377H5.352A1.354,1.354,0,0,0,4,306.906c0,.083.233,8.4.88,16.921.337,4.445.7,7.861,1.07,10.5C4.687,333.127,3.821,333,3,333.317c-2.308.9-1.751,4.934.3,15.4.532,2.711,1.208,6.164,1.41,8.17a3.078,3.078,0,0,0-3.223-.2c-2.519,1.6-1.277,7.855-.312,11.443a1.353,1.353,0,0,0,1.089.985l5.023.819c.913,2.307,3.947,8.77,8.968,7.871,1.287,1.228.971,10.811-.7,20.723a1.354,1.354,0,0,0,1.085,1.555c3.759.7,15.4,2.682,19.916,1.137.031.173.062.346.093.519,2.065,11.533,3.257,14.98,5.312,15.365a2.135,2.135,0,0,0,2.272-1.238c.894-1.5,5.419-1.582,9.794-1.66,1.477-.027,3-.054,4.543-.126,5.306-.121,11.957-.767,16.324-4.715,3.985-3.53,5.973-6.171,6.143-8.192l10.3.819A1.368,1.368,0,0,0,92.4,401.6l10.648-10.641c.028-.028.054-.056.079-.087s2.7-3.22,5.227-6.6c2.727-3.656,4-5.79,4.511-7.144a13.2,13.2,0,0,1,4.231,8.225c.206,1.65.854,2.677,1.927,3.054,2.187.765,4.759-1.741,7.74-4.644a25.041,25.041,0,0,1,4.192-3.59c1.477,3.588,2.632,14.653.485,17.1a.711.711,0,0,1-.9.2c-1.026-.359-1.786-.221-2.258.408a1.734,1.734,0,0,0,.194,2.2c2.224,3.13,19.6,17,25.13,15.239a2.96,2.96,0,0,0,2.02-3.057c0-.81.028-1.32.059-1.638,2.594.2,5.491-1.381,9.524-16.338.373-1.37.678-2.371.924-3.1.175.858.352,1.854.511,2.748,1.1,6.2,2.611,14.7,7.313,17.759a7.023,7.023,0,0,0,5.722.866c3.17-.765,8.566-3.8,14.192-9.993a22.921,22.921,0,0,0,1.611-1.914c1.793,1.8,4.65,2.917,8.821,3.485a77.863,77.863,0,0,0,16.722-.221,8.767,8.767,0,0,0,6.742-3.928c.918-1.167,1.447-1.783,2.55-1.938,1.929-.283,2.993-1.814,3.847-3.044.323-.465.925-1.331,1.141-1.357,2.524-.215,4.6-.448,6.431-.723.767,1.112,2.31,2.806,4.356,2.324.025-.006.049-.012.074-.02,3.21-.948,4.183-1.807,4.663-2.31a8.767,8.767,0,0,0,3.008-6.331A5,5,0,0,0,251.6,382.1a5.794,5.794,0,0,1-2.107-3.058c-1.259-3.112-2.791-5.591-9.98-6.839-3.44-.558-4.165-1.533-4.16-1.744.019-.791,2.918-3.009,10.01-3.808.838-.116,2.167.821,3.45,1.724,1.691,1.191,3.607,2.541,5.832,2.7,1.239.084,5.521.4,8.561.867,1.525.29,2.709.509,3.533.652a4.5,4.5,0,0,0,.866.374q1,.344,3.291.994c1.607.422,2.77-.879,3.62-1.829a5.593,5.593,0,0,1,1.131-1.073l.009,0a102.154,102.154,0,0,1,15.2,6.611c3.756,1.939,3.291,3.706,2.445,6.915-.606,2.3-1.293,4.9-.143,7.767,1.323,3.486.772,8.611.285,13.133-.143,1.334-.279,2.595-.368,3.784-.3,3.47-.573,7.256-.86,11.264-.705,9.874-1.5,21.066-3,29.181-1.738,9.372-3.66,10.158-3.873,10.216s-.435-.191-.437-.192a1.354,1.354,0,0,0-2.411.9l.832,19.819-5.417,7.346a1.36,1.36,0,0,0-.23.5l-2.853,12.309-13.2,19.744-19.56,6.568-53.933-1.948a1.331,1.331,0,0,0-1.166.588l-1.592,2.325-18.669,1.866a1.353,1.353,0,0,0-1.177,1.014l-1.71,6.743-17.256-.939a1.348,1.348,0,0,0-.887.27l-3.532,2.657h-11.8l-4.614-1.833a1.354,1.354,0,0,0-1.458.3l-2.9,2.912-2.571,2.491-9.214.915a1.357,1.357,0,0,0-.684.269l-7.635,5.789-3.91,3a1.354,1.354,0,0,0-.487,1.408l1.964,7.712a1.353,1.353,0,0,0,.218.463l2.156,2.956-1.377,1.1-5.672.506a1.353,1.353,0,0,0-1.019.618l-1.455,2.268H87.566c-2.549,0-6.147-1.736-6.183-1.753a1.355,1.355,0,0,0-.593-.137H70.1l1.853-1.482a1.362,1.362,0,0,0,.234-.24l2.891-3.817a1.353,1.353,0,0,0-.416-2l-8.7-4.893a1.353,1.353,0,0,0-1.508.121l-4.644,3.707-7.433,1.857a1.353,1.353,0,0,0-1.025,1.313v4.819a1.4,1.4,0,0,0,.009.158l1.022,8.695.79,5.941L49.121,585.1a1.354,1.354,0,0,0-.656,1.16v7.747a1.356,1.356,0,0,0,1.778,1.285,8.987,8.987,0,0,1,4.962-.006,12.786,12.786,0,0,1,2.071.988,14.184,14.184,0,0,0,8.019,2.014A46.547,46.547,0,0,0,77.1,597.275c1.824-.291,2.771-.4,3.4-.466,1.423-.157,1.55-.2,4.8-1.277l.708-.235a31.029,31.029,0,0,0,3.841-1.395,16.2,16.2,0,0,1,1.932-.509,6.173,6.173,0,0,1,1.7-.294H93.5c.944,0,1.4-.1,7.2-2.673,4.058-1.827,4.914-1.827,5.2-1.827.954,0,1.111-.126,3.738-2.241.441-.352.778-.594,1.032-.763a1.8,1.8,0,0,0,.975,1.093,2.688,2.688,0,0,0,2.433-.466l.05-.033c2-1.393,4.919-1.047,5.746-.912,1.1.717,5.1,3.14,7.977,2.6a3.635,3.635,0,0,0,1.7-.793,32.362,32.362,0,0,1,1.106,5.658l-2.662,4.387a1.353,1.353,0,0,0,.18,1.639l2.131,2.224a1.413,1.413,0,0,0,1.36.362c.24-.064,1.523-.2,7.932.747,9.287,1.277,9.843,1.353,11.761.287a17.166,17.166,0,0,1,8.3-1.994c1.835.076,3.019,0,6.046-2.391l4.44-3.518,10.953,1.864a1.379,1.379,0,0,0,.227.019h4.819a9.6,9.6,0,0,0,3.434-.94c2.829-1.135,6.036-2.421,10.333.69l6.668,4.734,3.91,2.856a1.353,1.353,0,0,0,.5.226l8.685,1.965a1.358,1.358,0,0,0,.8-.061l9.425-3.724H239.2c.526,1.7,1.87,4.892,4.821,6.346,2.4,1.182,5.245.956,8.459-.668l9.7-4.857a1.364,1.364,0,0,0,.282-.189l7.276-6.332,10.057.874,7.72,1a1.328,1.328,0,0,0,.174.011h13.495a1.353,1.353,0,0,0,1.353-1.353v-5.725l9.333-1.651,5.492.961a1.356,1.356,0,0,0,.856-.132l3.865-2a1.359,1.359,0,0,0,.5-.443l3.584-5.3,4.193-.677c.069.126.136.244.2.354l.03.068.009,0,.01.016c.161.323.52,1.051,1.256,2.543l2.929,5.745a1.357,1.357,0,0,0,.243.336l3.877,3.925c.127.13,3.136,3.19,6.335,4.156a6.971,6.971,0,0,1,1.707.82c1.175.732,2.13,1.177,5.487,1.177h16.412a1.342,1.342,0,0,0,.263-.026,51.59,51.59,0,0,1,7.465-.939h6.444l3.431,1.732a33.819,33.819,0,0,0,3.872,2.888c2.875,1.977,7.221,2.208,8.269,2.235,8.661,2.826,12.593,2.859,12.758,2.859h3.873a1.356,1.356,0,0,0,.476-.086c.171-.045,1.011-.249,4.6-.938a23.556,23.556,0,0,0,8.334-3.141,1.1,1.1,0,0,0,.588-1.065c.009-.108.141-1.062,1.941-1.62,2.731-.893,7.176-1.839,7.561-1.92l11.478-1.9a29.1,29.1,0,0,1,7.162.895c3.1,1.021,9.849,1.033,10.136,1.033h5.588l4.742.972a1.333,1.333,0,0,0,.379.023l12.529-1c.044,0,.088-.01.132-.017l10.6-1.907h28.793a1.36,1.36,0,0,0,.393-.058l2.928-.888a1.35,1.35,0,0,0,.807-.668c.6-.228,1.78-.622,4.07-1.266l1.148-.365a17.965,17.965,0,0,0,2.254-.795l8.849-.748,9.664-.958h6.4l10.379,3.773a1.353,1.353,0,0,0,.463.082h6.821c.286,0,7.044-.023,12.106-2.023l4.672-1.87,6.511-.962h14.45a1.434,1.434,0,0,0,.612-.146c.017-.009,1.8-.856,6.117-.856a1.354,1.354,0,0,0,.729-.213l.771-.493,1.752-.539a1.354,1.354,0,0,0,.919-.981l.907-3.817a1.362,1.362,0,0,0,.025-.484l-.907-7.118a1.357,1.357,0,0,0-.356-.754l-3.942-4.2a3.032,3.032,0,0,0-.205-1.529,4.156,4.156,0,0,0-2.806-2.229,4.463,4.463,0,0,1-2.243-2.109,7.1,7.1,0,0,0-3.5-3.111,11.631,11.631,0,0,1-4.58-3.538,1.36,1.36,0,0,0-.572-.439l-4.838-1.965a1.385,1.385,0,0,0-.18-.059l-7.555-1.893-3.766-1.829a1.35,1.35,0,0,0-.336-.112l-4.838-.928a1.416,1.416,0,0,0-.248-.024,21.851,21.851,0,0,1-7.123-1.867l-6.635-3.772-3.821-2.876a1.345,1.345,0,0,0-.551-.246l-3.467-.687c.513-2.464.954-6.908-2.186-7.943-1.84-.618-3.482-3.943-3.912-5.058a1.353,1.353,0,0,0-1.01-.846l-4.2-.8-1.716-3.27a1.363,1.363,0,0,0-.589-.58l-3.855-1.945a1.338,1.338,0,0,0-.234-.093l-13.495-3.893a1.4,1.4,0,0,0-.2-.041l-6.809-.892-8.675-.977-4.724-.93-13.376-2.9c-.732-.3-3.108-.955-8.392-.044l-5.783.89a1.356,1.356,0,0,0-1.04.808l-2.559,6.015h-2.034a1.354,1.354,0,0,0-.75.226l-2.721,1.81-2.513.837h-1.546l-3.2-.787L472.49,517a1.355,1.355,0,0,0-.894-.654l-4.874-1.038a1.367,1.367,0,0,0-.282-.029H452.221l-5.944-1.647-1.7-5.206a1.353,1.353,0,0,0-1.286-.933h-7.728a1.35,1.35,0,0,0-.487.09c-2.074.8-8.119,2.876-11.137,2.876H413.318a1.358,1.358,0,0,0-.5.1l-4.276,1.7-5.278-2.623a1.35,1.35,0,0,0-.264-.1l-7.748-2-.06-.014-8.52-1.792-4.488-1.816-4.417-4.45-2.772-8.39a1.352,1.352,0,0,0-.329-.533l-1.611-1.611-1.811-8.2v-5.563l.913-11.467.972-3.7a1.358,1.358,0,0,0,.016-.617l-1-4.855a1.348,1.348,0,0,0-.114-.33l-3.667-7.353,1.827-13.131,1.955-9.614c.006-.032.012-.063.016-.1l1.89-14.437a1.39,1.39,0,0,0,0-.352l-.888-6.822a1.356,1.356,0,0,0-.3-.684L369.24,397.3V385.547l3.747-6.429a1.357,1.357,0,0,0,.184-.682v-6.785a1.292,1.292,0,0,0-.015-.2l-.94-6.3,1.576-3.246,4.605-3.74a1.379,1.379,0,0,0,.247-.262l4.819-6.729a1.342,1.342,0,0,0,.251-.7c.338-.323,1.481-1.2,5.023-2.676a44.333,44.333,0,0,0,7.923-4.192l5.894,7.613a1.354,1.354,0,0,0,1.07.525h2.78l8.53,1.9a1.343,1.343,0,0,0,.294.032h4.657l1.737.422c-1.966,2.453-4.283,4.638-5.356,4.638-3.22,0-7.205,1.906-7.374,1.987a1.354,1.354,0,0,0-.748,1.435l.915,5.648-.909,7.394-1.934,6.68a1.34,1.34,0,0,0-.054.382c.012,3.223.435,10.622,4.008,10.957l11.234,3.745,7.532,5.756a1.353,1.353,0,0,0,1.518.085l4.839-2.9,4.49-2.8h3.506a1.353,1.353,0,0,0,1.2-.733l2.964-5.747a1.353,1.353,0,0,0,.151-.62v-4.82a1.353,1.353,0,0,0-.527-1.071,19.614,19.614,0,0,1-2.929-2.749,13.551,13.551,0,0,1,1.808.286l6.764,1.512-3.784,6.131a1.357,1.357,0,0,0-.2.594l-1,11.641a1.38,1.38,0,0,0,0,.272l1,8.674a1.353,1.353,0,0,0,.923,1.131l2.807.918a28.966,28.966,0,0,1,5.469,2.818l3.893,2.855a1.36,1.36,0,0,0,.369.191S470,421,473.263,422.074a1.37,1.37,0,0,0,.975-.05,35.729,35.729,0,0,1,6.11-1.71c13.363-2.872,16.417-3.812,16.54-3.85a1.381,1.381,0,0,0,.366-.18l2.893-2a1.35,1.35,0,0,0,.545-.791l.926-3.781a1.354,1.354,0,0,0,.027-.5l-.926-6.82a1.354,1.354,0,0,0-1.028-1.135l-3.645-.867-1.98-1.371.656-4.031,5.783-1.754h2.709a1.35,1.35,0,0,0,.659-.172l6.822-3.8a1.353,1.353,0,0,0,.666-1.456l-.941-4.566c.313-1.411,1.068-5.667-.629-7.832l1.291-.285,2.365,6.45v4.54a1.353,1.353,0,0,0,.747,1.21l7.764,3.893a1.344,1.344,0,0,0,.735.138l9.7-.926a1.351,1.351,0,0,0,1.038-.662l2.855-4.856a1.316,1.316,0,0,0,.134-.311l1.8-6.248,3.292-1.639,4.2-1.68,2.18,1.107-2.412,6.548-1.895,3.787a1.34,1.34,0,0,0-.13.421l-.945,6.859a1.354,1.354,0,0,0,.228.957l1.951,2.809,2.823,3.839,3.546,7.058-1.733,4.25a1.354,1.354,0,0,0,1.009,1.842l5.5,1.011,6.507,5.547a1.36,1.36,0,0,0,.629.3c3.3.618,5.971,5.181,6.72,6.885a1.355,1.355,0,0,0,1.24.811h4.82a4.466,4.466,0,0,1,2.023.283c1.065.417,2.232.736,6.669.736h10.583a1.355,1.355,0,0,0,.806-.266l3.93-2.911a1.344,1.344,0,0,0,.322-.339l3.836-5.782a1.408,1.408,0,0,0,.09-.156l1.64-3.376a2.111,2.111,0,0,0,1.02-.938c.782-1.466-.442-3.292-.843-3.89a5.727,5.727,0,0,1-1.123-3.26,11.944,11.944,0,0,0-.622-3.09,25.771,25.771,0,0,1-.862-6.43,1.367,1.367,0,0,0-.621-1.138,3.08,3.08,0,0,1-.505-.422c.057-.027.126-.057.208-.087a19.075,19.075,0,0,1,5.2-.888M415.742,609.757a1.357,1.357,0,0,0,.475-.33,1.283,1.283,0,0,1-.475.33m.483-.339a1.423,1.423,0,0,0,.11-.138,1.432,1.432,0,0,1-.11.138m.133-.173a1.492,1.492,0,0,0,.077-.13,1.477,1.477,0,0,1-.077.13m.1-.188a1.239,1.239,0,0,0,.051-.125,1.194,1.194,0,0,1-.051.125m.074-.214c.009-.036.02-.071.026-.108-.006.037-.017.072-.026.108" transform="translate(0 0.002)" fill="#119db5"/>
  </g>
</svg>
